<?xml version="1.0" encoding="utf-8"?>
<!-- Generator: Adobe Illustrator 21.1.0, SVG Export Plug-In . SVG Version: 6.00 Build 0)  -->
<svg version="1.1" id="Calque_1" xmlns="http://www.w3.org/2000/svg" xmlns:xlink="http://www.w3.org/1999/xlink" x="0px" y="0px"
	 viewBox="0 0 34 27" style="enable-background:new 0 0 34 27;" xml:space="preserve">
<g>
	<path d="M22,2c0-1.1-0.9-2-2-2s-2,0.9-2,2v25h4V2z"/>
	<path d="M10,13c0-1.1-0.9-2-2-2s-2,0.9-2,2v14h4V13z"/>
	<path d="M28,10c0-1.1-0.9-2-2-2s-2,0.9-2,2v17h4V10z"/>
	<path d="M16,7c0-1.1-0.9-2-2-2s-2,0.9-2,2v20h4V7z"/>
	<path d="M34,18c0-1.1-0.9-2-2-2s-2,0.9-2,2v9h4V18z"/>
	<path d="M4,10c0-1.1-0.9-2-2-2s-2,0.9-2,2v17h4V10z"/>
</g>
</svg>
