<?xml version="1.0" encoding="utf-8"?>
<!-- Generator: Adobe Illustrator 21.1.0, SVG Export Plug-In . SVG Version: 6.00 Build 0)  -->
<svg version="1.1" id="Calque_1" xmlns="http://www.w3.org/2000/svg" xmlns:xlink="http://www.w3.org/1999/xlink" x="0px" y="0px"
	 viewBox="0 0 23 26" style="enable-background:new 0 0 23 26;" xml:space="preserve">
<style type="text/css">
	.st0{fill:#FFFFFF;}
</style>
<path class="st0" d="M7,26H3c-1.6,0-3-1.4-3-3V3c0-1.6,1.4-3,3-3h4c1.6,0,3,1.4,3,3v20C10,24.6,8.6,26,7,26z"/>
<path class="st0" d="M20,26h-4c-1.6,0-3-1.4-3-3V3c0-1.6,1.4-3,3-3h4c1.6,0,3,1.4,3,3v20C23,24.6,21.6,26,20,26z"/>
</svg>
