<?xml version="1.0" encoding="utf-8"?>
<!-- Generator: Adobe Illustrator 21.1.0, SVG Export Plug-In . SVG Version: 6.00 Build 0)  -->
<svg version="1.1" id="Calque_1" xmlns="http://www.w3.org/2000/svg" xmlns:xlink="http://www.w3.org/1999/xlink" x="0px" y="0px"
	 viewBox="0 0 24.5 21.5" style="enable-background:new 0 0 24.5 21.5;" xml:space="preserve">
<style type="text/css">
	.st0{fill:#FFFFFF;}
</style>
<path class="st0" d="M19.5,15.4c-3.6-0.4-5.2-2.2-6.8-4.4c1.6-2.3,3.2-4,6.8-4.4v2.9l5-4.7l-5-4.7v3.6c-4.6,0.4-6.9,2.6-8.6,4.9
	C8.8,5.9,6,3.5,0,3.5v3c5.2,0,7.2,2,9,4.5c-1.8,2.5-3.9,4.5-9,4.5v3c6,0,8.8-2.4,10.9-5c1.8,2.3,4.1,4.5,8.6,4.9v3.1l5-4.7l-5-4.7
	V15.4z"/>
</svg>
